<svg width="349" height="772" viewBox="0 0 349 772" fill="none" xmlns="http://www.w3.org/2000/svg">
<path d="M136.71 598.353C136.905 619.062 153.852 635.693 174.561 635.498C195.271 635.304 211.902 618.357 211.707 597.647L136.71 598.353ZM213 8C176.206 0.757304 176.205 0.764349 176.203 0.772214C176.202 0.775929 176.201 0.784618 176.199 0.79205C176.196 0.806916 176.193 0.825065 176.189 0.846494C176.18 0.88935 176.169 0.945326 176.156 1.01439C176.129 1.15253 176.092 1.34303 176.046 1.5857C175.953 2.07102 175.822 2.76499 175.655 3.66592C175.32 5.46778 174.843 8.09752 174.244 11.5417C173.045 18.43 171.36 28.5765 169.36 41.8735C165.361 68.4672 160.104 107.665 154.971 158.608C144.705 260.491 134.933 409.367 136.71 598.353L211.707 597.647C209.958 411.613 219.581 265.489 229.593 166.127C234.599 116.447 239.701 78.4615 243.526 53.0271C245.438 40.3101 247.032 30.7313 248.133 24.398C248.684 21.2314 249.113 18.8762 249.397 17.3458C249.538 16.5807 249.644 16.0217 249.711 15.6706C249.745 15.4951 249.769 15.3715 249.783 15.3001C249.79 15.2644 249.794 15.2418 249.796 15.2322C249.797 15.2274 249.797 15.2259 249.797 15.2276C249.797 15.2285 249.796 15.2323 249.796 15.2327C249.795 15.2373 249.794 15.2427 213 8Z" fill="#5711B1"/>
<path d="M38 597.164L185.295 734L311 558" stroke="#5711B1" stroke-width="75" stroke-linecap="round" stroke-linejoin="round"/>
</svg>
