<svg width="209" height="131" viewBox="0 0 209 131" fill="none" xmlns="http://www.w3.org/2000/svg">
<path d="M159.975 6.71381L157.638 3.46765L157.638 3.46765L159.975 6.71381ZM159.975 36.7471L161.567 33.0775L159.975 36.7471ZM117.795 96.5279L115.402 99.7335L117.795 96.5279ZM0.69729 104.243C-0.548979 106.067 -0.0806056 108.556 1.74343 109.803L31.4678 130.112C33.2919 131.358 35.7808 130.89 37.0271 129.066C38.2734 127.242 37.805 124.753 35.981 123.506L9.55928 105.454L27.6118 79.0322C28.8581 77.2081 28.3897 74.7192 26.5657 73.4729C24.7417 72.2266 22.2527 72.695 21.0064 74.519L0.69729 104.243ZM208.529 52.7873C201.91 50.049 197.042 45.1058 193.119 39.0891C189.161 33.0172 186.337 26.1341 183.636 19.6732C182.312 16.5047 180.996 13.3909 179.612 10.6847C178.244 8.00853 176.666 5.43767 174.703 3.50163C172.664 1.48969 170.046 0.0150628 166.789 0.000113176C163.668 -0.0142103 160.62 1.32039 157.638 3.46765L162.312 9.95996C164.574 8.33159 165.978 7.99648 166.752 8.00003C167.39 8.00296 168.109 8.2338 169.085 9.1966C170.138 10.2353 171.253 11.9084 172.49 14.3273C173.711 16.7159 174.914 19.5481 176.255 22.7581C178.887 29.0542 181.985 36.6588 186.418 43.4582C190.887 50.313 196.879 56.6252 205.471 60.1796L208.529 52.7873ZM157.638 3.46765C149.819 9.09718 146.623 17.5299 146.288 26.4562C145.956 35.2935 148.387 44.8948 152.083 53.7046C155.792 62.5455 160.895 70.8755 166.206 77.2189C168.862 80.3907 171.633 83.141 174.379 85.2182C177.07 87.2535 180.021 88.8587 183.015 89.325L184.246 81.4203C183.107 81.243 181.399 80.4973 179.205 78.8378C177.066 77.22 174.725 74.9312 172.34 72.0829C167.57 66.3862 162.876 58.752 159.46 50.6097C156.031 42.4364 154.009 34.0356 154.282 26.7567C154.552 19.5669 157.021 13.7695 162.312 9.95996L157.638 3.46765ZM183.015 89.325C185.78 89.7557 188.462 89.4187 190.761 88.0721C193.061 86.7244 194.558 84.6112 195.401 82.2643C197.027 77.7366 196.421 71.9094 194.383 66.1594C190.235 54.4564 179.398 40.8123 161.567 33.0775L158.383 40.4168C174.182 47.2696 183.438 59.2254 186.842 68.8319C188.581 73.7366 188.615 77.4914 187.872 79.5603C187.53 80.5117 187.091 80.9505 186.717 81.1693C186.342 81.3892 185.612 81.6331 184.246 81.4203L183.015 89.325ZM161.567 33.0775C148.223 27.2894 136.781 27.4854 127.7 30.6608C118.721 33.8006 112.324 39.7566 108.763 45.1171L115.427 49.5436C118.136 45.465 123.191 40.7127 130.341 38.2124C137.389 35.7475 146.752 35.3715 158.383 40.4168L161.567 33.0775ZM108.763 45.1171C105.204 50.4751 101.698 60.0149 101.546 70.1483C101.392 80.4216 104.708 91.7516 115.402 99.7335L120.188 93.3223C112.087 87.2763 109.418 78.7271 109.545 70.2684C109.674 61.6697 112.716 53.6246 115.427 49.5436L108.763 45.1171ZM115.402 99.7335C123.658 105.895 134.906 106.861 144.099 105.048C148.75 104.131 153.146 102.457 156.631 100.129C160.059 97.8385 163.023 94.6158 163.89 90.4843L156.06 88.8419C155.787 90.1451 154.674 91.8152 152.186 93.4774C149.754 95.1022 146.396 96.4413 142.552 97.1993C134.755 98.7367 126.053 97.6998 120.188 93.3223L115.402 99.7335ZM163.89 90.4843C165.312 83.7047 163.119 75.0908 157.767 68.2489C152.284 61.24 143.373 55.9158 131.19 55.9158V63.9158C140.817 63.9158 147.439 68.0306 151.466 73.1781C155.623 78.4925 156.918 84.7524 156.06 88.8419L163.89 90.4843ZM131.19 55.9158C124.136 55.9158 113.004 58.9614 100.69 63.168C88.1761 67.4432 73.8249 73.1444 60.0439 78.8705C46.2612 84.5973 32.965 90.3846 22.6076 94.8202C17.415 97.0439 12.9765 98.9214 9.56029 100.294C5.96676 101.738 3.9278 102.443 3.26027 102.569L4.73973 110.431C6.3522 110.128 9.21157 109.056 12.5428 107.717C16.0514 106.308 20.5639 104.398 25.757 102.174C36.171 97.7144 49.3841 91.9628 63.1135 86.2581C76.8446 80.5528 91.0082 74.9296 103.276 70.7384C115.745 66.4787 125.662 63.9158 131.19 63.9158V55.9158Z" fill="#7B24EA"/>
</svg>
