<svg width="395" height="102" viewBox="0 0 395 102" fill="none" xmlns="http://www.w3.org/2000/svg">
<path d="M5.80826 22.7276L0.839982 23.2899L1.96456 33.2265L6.93284 32.6642L5.80826 22.7276ZM379.722 7.61251L378.936 12.5504L379.722 7.61251ZM112.641 42.0751L114.572 46.687L112.641 42.0751ZM200.873 96.3281C200.837 99.0893 203.046 101.357 205.807 101.393C208.568 101.429 210.836 99.2193 210.872 96.4582L200.873 96.3281ZM6.93284 32.6642C58.5556 26.8217 139.237 19.807 213.29 15.2535C250.315 12.9769 285.64 11.3182 314.823 10.727C344.15 10.1329 366.872 10.6301 378.936 12.5504L380.508 2.67467C367.433 0.593495 343.847 0.137027 314.62 0.729071C285.249 1.32405 249.774 2.99124 212.676 5.27239C138.483 9.8345 57.6284 16.8628 5.80826 22.7276L6.93284 32.6642ZM378.936 12.5504C382.875 13.1773 385.007 13.7016 385.891 14.0458C386.08 14.1196 386.04 14.1212 385.88 14.0194C385.793 13.9642 385.132 13.5514 384.62 12.6249C383.943 11.4 383.836 9.8206 384.508 8.42851C385.018 7.37211 385.757 6.88831 385.887 6.80336C386.184 6.60921 386.17 6.6966 385.361 6.91902C384.678 7.10658 383.71 7.31681 382.425 7.54141C379.862 7.9893 376.355 8.43992 371.984 8.89545C354.461 10.7214 324.603 12.4748 290.751 14.675C256.993 16.8691 219.394 19.5008 186.658 23.0797C154.183 26.6302 125.71 31.1813 110.71 37.4631L114.572 46.687C128.006 41.0614 154.991 36.6014 187.745 33.0205C220.239 29.468 257.64 26.8482 291.4 24.654C325.065 22.4659 355.242 20.6941 373.02 18.8416C377.474 18.3775 381.246 17.8989 384.146 17.3922C385.593 17.1394 386.903 16.8659 388.011 16.5614C388.992 16.2918 390.28 15.8788 391.358 15.1739C391.879 14.8336 392.879 14.0918 393.514 12.7746C394.312 11.1218 394.197 9.27875 393.372 7.78708C392.713 6.59392 391.765 5.91136 391.249 5.58304C390.66 5.20816 390.048 4.93324 389.519 4.72708C387.525 3.95113 384.425 3.29815 380.508 2.67467L378.936 12.5504ZM110.71 37.4631C102.204 41.0252 96.4301 43.8118 93.488 45.9916C92.7325 46.5514 91.8512 47.2931 91.1663 48.2311C90.5298 49.1028 89.414 51.0746 90.1715 53.5359C90.8953 55.8877 92.8027 56.9065 93.678 57.2818C94.68 57.7114 95.7388 57.9104 96.6048 58.0221C99.9602 58.4547 105.484 58.1298 112.007 57.5094C118.725 56.8705 127.106 55.8487 136.509 54.6714C174.437 49.9227 229.031 42.6749 264.505 46.3864L265.546 36.4407C228.641 32.5795 172.638 40.0699 135.267 44.7489C125.845 45.9286 117.607 46.9317 111.061 47.5543C104.319 48.1955 99.9343 48.3686 97.8837 48.1042C97.3982 48.0416 97.3869 47.9916 97.6184 48.0908C97.723 48.1357 99.1592 48.7427 99.7291 50.5945C100.333 52.5558 99.3804 53.9393 99.2426 54.128C99.0565 54.3829 99.0093 54.3465 99.4411 54.0266C101.248 52.6876 105.876 50.3287 114.572 46.687L110.71 37.4631ZM264.505 46.3864C268.965 46.8531 272.287 47.3186 274.636 47.7713C277.247 48.2743 277.981 48.6472 277.885 48.5867C277.795 48.53 277.441 48.2984 277.07 47.8243C276.666 47.3085 276.187 46.4227 276.161 45.2353C276.135 44.0541 276.571 43.1579 276.936 42.6376C277.275 42.1554 277.61 41.9064 277.702 41.8402C277.825 41.7518 277.253 42.0953 275.172 42.6391C267.509 44.642 250.309 46.7944 230.126 48.9756C210.218 51.1272 187.643 53.2867 169.982 55.3163C161.135 56.333 153.377 57.3325 147.67 58.3044C144.835 58.7873 142.375 59.285 140.497 59.8064C139.571 60.0635 138.633 60.3679 137.808 60.7426C137.394 60.9306 136.898 61.1858 136.407 61.5303C135.959 61.8452 135.222 62.4349 134.654 63.3881L143.245 68.5067C142.805 69.2454 142.29 69.6191 142.151 69.7164C141.97 69.8433 141.873 69.8794 141.945 69.8467C142.092 69.7802 142.468 69.6375 143.173 69.4418C144.556 69.0576 146.62 68.6272 149.349 68.1624C154.772 67.2388 162.304 66.2644 171.123 65.2509C188.794 63.2202 211.054 61.0951 231.201 58.9177C251.074 56.7699 269.15 54.549 277.701 52.3142C279.674 51.7986 281.964 51.0911 283.535 49.963C284.194 49.4893 286.221 47.8855 286.159 45.0172C286.095 42.1137 283.959 40.5958 283.229 40.1343C281.529 39.0595 279.021 38.4323 276.528 37.952C273.775 37.4215 270.133 36.9207 265.546 36.4407L264.505 46.3864ZM134.654 63.3881C133.853 64.7339 133.02 67.337 134.757 69.8482C136.038 71.6991 138.001 72.2777 138.82 72.4859C140.773 72.9829 143.346 72.9967 145.755 72.9067C150.821 72.7174 158.025 71.8964 165.175 71.1861C172.496 70.4589 179.907 69.8288 185.904 69.9077C188.911 69.9473 191.346 70.1648 193.134 70.5579C195.108 70.9917 195.443 71.4586 195.288 71.2731L202.954 64.8516C200.918 62.4209 197.834 61.3522 195.281 60.791C192.542 60.1891 189.342 59.9521 186.036 59.9086C179.407 59.8214 171.479 60.5107 164.186 61.2351C156.722 61.9766 150.039 62.7397 145.382 62.9137C142.929 63.0053 141.682 62.8956 141.286 62.7947C140.929 62.704 142.086 62.865 142.981 64.1587C144.333 66.1126 143.536 68.0187 143.245 68.5067L134.654 63.3881ZM195.288 71.2731C201.422 78.5956 201.009 85.8451 200.873 96.3281L210.872 96.4582C210.998 86.7687 211.866 75.4907 202.954 64.8516L195.288 71.2731Z" fill="#7B24EA"/>
</svg>
